<svg width="36" height="22" viewBox="0 0 36 22" fill="none" xmlns="http://www.w3.org/2000/svg">
<path d="M23.1176 19.3544H13.4402V1.93506H23.1176V19.3544Z" fill="#6C6BBD"/>
<path d="M14.167 10.6454C14.167 7.24993 15.7749 4.22538 18.279 2.27623C16.4478 0.850924 14.1369 0.000204086 11.6253 0.000204086C5.67943 0.000204086 0.859619 4.76613 0.859619 10.6454C0.859619 16.5246 5.67943 21.2905 11.6253 21.2905C14.1369 21.2905 16.4478 20.4398 18.279 19.0145C15.7749 17.0654 14.167 14.0408 14.167 10.6454Z" fill="#EB001B"/>
<path d="M35.6984 10.6454C35.6984 16.5246 30.8788 21.2905 24.9332 21.2905C22.4217 21.2905 20.1108 20.4398 18.2791 19.0145C20.7837 17.0654 22.3916 14.0408 22.3916 10.6454C22.3916 7.24993 20.7837 4.22538 18.2791 2.27623C20.1108 0.850924 22.4217 0.000204086 24.9332 0.000204086C30.8788 0.000204086 35.6984 4.76613 35.6984 10.6454Z" fill="#0099DF"/>
</svg>
