<svg width="35" height="22" viewBox="0 0 35 22" fill="none" xmlns="http://www.w3.org/2000/svg">
<rect x="12.7292" y="2.30518" width="9.42033" height="16.9498" fill="#FF5F00"/>
<path d="M13.3273 10.7816C13.3237 7.47348 14.8402 4.34761 17.4393 2.30514C13.0252 -1.16805 6.68624 -0.662152 2.87739 3.46731C-0.93146 7.59676 -0.93146 13.9634 2.87739 18.0928C6.68624 22.2223 13.0252 22.7282 17.4393 19.255C14.841 17.2132 13.3247 14.0886 13.3273 10.7816Z" fill="#EB001B"/>
<path d="M34.8595 10.7817C34.8594 14.9087 32.5057 18.6733 28.7981 20.4767C25.0905 22.2802 20.6798 21.8058 17.4393 19.2552C20.0365 17.2116 21.553 14.0875 21.553 10.7802C21.553 7.47304 20.0365 4.34888 17.4393 2.30533C20.6798 -0.24535 25.0905 -0.719695 28.7981 1.08375C32.5057 2.8872 34.8594 6.65181 34.8595 10.7788V10.7817Z" fill="#F79E1B"/>
</svg>
