<svg width="40" height="12" viewBox="0 0 40 12" fill="none" xmlns="http://www.w3.org/2000/svg">
<path d="M35.3885 0H27.9446C28.3782 2.45723 30.7632 4.76992 33.3649 4.76992H39.2912C39.3635 4.55311 39.3635 4.19174 39.3635 3.97493C39.3635 1.80679 37.5567 0 35.3885 0Z" fill="url(#paint0_linear_27_150)"/>
<path d="M28.5951 5.20361V11.2021H32.2087V8.0222H35.3886C37.1231 8.0222 38.6408 6.79359 39.1467 5.20361H28.5951Z" fill="#4FAD50"/>
<path d="M15.8752 0V11.1298H19.0552C19.0552 11.1298 19.8502 11.1298 20.2838 10.3348C22.452 6.07081 23.1024 4.76992 23.1024 4.76992H23.536V11.1298H27.1496V0H23.9697C23.9697 0 23.1747 0.0722759 22.741 0.794991C20.9342 4.48084 19.9225 6.35989 19.9225 6.35989H19.4888V0H15.8752Z" fill="#4FAD50"/>
<path d="M0.698242 11.2021V0.0722656H4.31182C4.31182 0.0722656 5.32362 0.0722634 5.9018 1.66224C7.34723 5.85398 7.49178 6.43216 7.49178 6.43216C7.49178 6.43216 7.78085 5.42035 9.08174 1.66224C9.65991 0.0722634 10.6717 0.0722656 10.6717 0.0722656H14.2853V11.2021H10.6717V5.20354H10.2381L8.21449 11.2021H6.62451L4.60092 5.20354H4.16729V11.2021H0.698242Z" fill="#4FAD50"/>
<defs>
<linearGradient id="paint0_linear_27_150" x1="27.9317" y1="2.41914" x2="39.3379" y2="2.41914" gradientUnits="userSpaceOnUse">
<stop stop-color="#27B1E6"/>
<stop offset="1" stop-color="#148ACA"/>
</linearGradient>
</defs>
</svg>
