<svg width="24" height="24" viewBox="0 0 24 24" fill="none" xmlns="http://www.w3.org/2000/svg">
<path d="M18.7254 14.6682C19.1129 14.8343 19.2789 15.3878 19.2789 15.6645C19.3343 16.1073 19.2236 16.3287 19.0575 16.3287C18.8915 16.3287 18.6701 16.1627 18.4487 15.7752C18.2273 15.3878 18.1166 15.0003 18.2273 14.7789C18.3933 14.6682 18.5594 14.6128 18.7254 14.6682Z" fill="#F28A1A"/>
<path d="M16.456 16.3838C16.6774 16.3838 16.9542 16.4945 17.2309 16.7159C17.6737 17.1034 17.8398 17.5462 17.6184 17.8783C17.5077 18.0443 17.2309 18.155 17.0095 18.155C16.7328 18.155 16.456 18.0443 16.2899 17.8783C15.8471 17.4908 15.7364 16.9373 16.0132 16.6052C16.0685 16.4945 16.2346 16.3838 16.456 16.3838Z" fill="#F28A1A"/>
<path d="M11.1977 20.7568C5.44114 20.7568 0.791626 16.1073 0.791626 10.4061C0.791626 4.70487 5.44114 0 11.1977 0C16.9542 0 21.6038 4.64952 21.6038 10.4061C21.6038 12.3434 21.0502 14.17 20.1646 15.7198C20.1093 15.7751 20.0539 15.7751 20.0539 15.6644C19.6665 13.1183 18.1166 11.7345 15.9026 11.2917C15.6812 11.2363 15.6812 11.1256 15.9579 11.1256C16.6775 11.0703 17.6185 11.0703 18.172 11.181C18.2273 10.9042 18.2273 10.6275 18.2273 10.4061C18.2273 6.64217 15.1276 3.54249 11.3637 3.54249C7.59985 3.54249 4.50017 6.64217 4.50017 10.4061C4.50017 14.17 7.59985 17.2696 11.3637 17.2696H11.6959C11.5851 16.6608 11.5298 16.0519 11.5851 15.3877C11.5851 14.9449 11.6959 14.8895 11.8619 15.2216C12.8029 16.8822 14.1867 18.3213 16.8435 18.9302C19.0022 19.4283 21.1609 19.9819 23.541 22.9155C23.7625 23.1922 23.4303 23.469 23.2089 23.2476C20.8288 21.1442 18.6701 20.4247 16.6775 20.4247C14.1867 20.48 12.6922 20.7568 11.1977 20.7568Z" fill="#F28A1A"/>
</svg>
