<svg width="46" height="14" viewBox="0 0 46 14" fill="none" xmlns="http://www.w3.org/2000/svg">
<path d="M41.9931 0.197266H39.1628C38.3072 0.197266 37.649 0.460545 37.254 1.3162L31.8568 13.6245H35.6744C35.6744 13.6245 36.3326 11.979 36.4642 11.5841C36.8591 11.5841 40.6109 11.5841 41.1374 11.5841C41.269 12.0448 41.5981 13.5587 41.5981 13.5587H45.0208L41.9931 0.197266ZM37.5173 8.81967C37.8464 8.02983 38.9654 5.06793 38.9654 5.06793C38.9654 5.13375 39.2945 4.2781 39.4261 3.81736L39.6894 5.00211C39.6894 5.00211 40.4134 8.22729 40.545 8.88549H37.5173V8.81967Z" fill="#3362AB"/>
<path d="M32.1201 9.21478C32.1201 11.9792 29.619 13.8222 25.7356 13.8222C24.0901 13.8222 22.5104 13.4931 21.6548 13.0981L22.1813 10.0704L22.6421 10.2679C23.8268 10.7945 24.6167 10.9919 26.0647 10.9919C27.1178 10.9919 28.2368 10.597 28.2368 9.67552C28.2368 9.08314 27.776 8.68822 26.328 8.03002C24.9458 7.37182 23.1028 6.31871 23.1028 4.40993C23.1028 1.77714 25.6698 0 29.2899 0C30.6721 0 31.8569 0.263279 32.5809 0.592379L32.0543 3.48845L31.791 3.22517C31.1328 2.96189 30.2772 2.69861 29.0266 2.69861C27.6444 2.76443 26.9862 3.35681 26.9862 3.88337C26.9862 4.47575 27.776 4.93649 29.0266 5.52887C31.1328 6.51616 32.1201 7.6351 32.1201 9.21478Z" fill="#3362AB"/>
<path d="M0 0.329197L0.0658199 0.065918H5.72633C6.51616 0.065918 7.10854 0.329197 7.306 1.18486L8.55658 7.10864C7.306 3.94929 4.40993 1.38231 0 0.329197Z" fill="#F9B50B"/>
<path d="M16.5208 0.197656L10.7945 13.5591H6.91111L3.62012 2.36971C5.98963 3.88357 7.96423 6.25308 8.68825 7.89858L9.08317 9.28079L12.6374 0.131836H16.5208V0.197656Z" fill="#3362AB"/>
<path d="M18.0347 0.131836H21.6547L19.351 13.5591H15.731L18.0347 0.131836Z" fill="#3362AB"/>
</svg>
