<svg width="24" height="23" viewBox="0 0 24 23" fill="none" xmlns="http://www.w3.org/2000/svg">
<path d="M15.2675 11.0149L12.7767 8.30271L10.0092 10.7382L12.5 13.5057L15.2675 11.0149Z" fill="#137ABE"/>
<path d="M8.01651 6.08865L10.5073 8.80087L13.2749 6.36541L10.7841 3.65319L8.01651 6.08865Z" fill="#137ABE"/>
<path d="M17.2048 15.7198L14.714 13.0076L11.9465 15.4984L14.4373 18.2106L17.2048 15.7198Z" fill="#137ABE"/>
<path d="M14.3266 20.2586L9.78775 15.2216L11.0608 14.1146L7.85045 10.5721L9.12353 9.46509L5.91315 5.9226L10.9501 1.43914L12.5553 3.15503L15.3229 0.77492L16.9281 2.43546L17.9798 1.49449C17.7584 1.38378 17.4816 1.21773 17.2602 1.10703C15.655 0.442811 13.9391 0 12.1125 0C5.7471 0 0.544067 5.14768 0.544067 11.4577C0.544067 17.7678 5.7471 22.9155 12.1679 22.9155C14.2712 22.9155 16.2085 22.362 17.8691 21.421C18.4226 21.0889 18.9207 20.7568 19.4189 20.4247L17.0941 17.8231L14.3266 20.2586Z" fill="#137ABE"/>
<path d="M13.1088 4.76022L14.9354 6.80822L17.0388 4.98163L15.1568 2.93362L13.1088 4.76022Z" fill="#137ABE"/>
<path d="M18.9207 9.07763L17.0388 7.02963L14.9908 8.91157L16.8727 10.9042L18.9207 9.07763Z" fill="#137ABE"/>
<path d="M20.692 13.395L18.81 11.347L16.762 13.1736L18.644 15.277L20.692 13.395Z" fill="#137ABE"/>
<path d="M20.8027 6.64217L19.4189 7.8599L20.692 9.24368L22.0204 8.02595L20.8027 6.64217Z" fill="#137ABE"/>
<path d="M21.1901 11.9005L22.4079 13.2843L23.7917 12.0666L22.5186 10.6828L21.1901 11.9005Z" fill="#137ABE"/>
<path d="M17.6476 3.81925L18.9207 5.20303L20.2492 3.9853L19.0314 2.60152L17.6476 3.81925Z" fill="#137ABE"/>
<path d="M18.5886 17.325L20.4706 19.373L22.5186 17.5464L20.6366 15.4984L18.5886 17.325Z" fill="#137ABE"/>
</svg>
