<svg width="22" height="20" viewBox="0 0 22 20" fill="none" xmlns="http://www.w3.org/2000/svg">
<path d="M21.5077 8.09778C21.397 7.43357 20.7882 6.99075 19.9579 6.99075C19.6812 6.99075 19.4598 6.99075 19.183 6.99075C18.6848 6.9354 18.5741 7.10146 18.5741 7.48892C18.5741 9.42622 18.5741 11.3082 18.5741 13.2455C18.5741 14.2418 17.5778 15.2935 16.4154 15.5149C12.7622 16.3451 9.10904 17.1201 5.45584 17.9503C5.06838 18.061 4.62558 18.061 4.18277 18.061C4.01671 18.061 3.73996 17.9503 3.68461 17.7843C3.62926 17.6736 3.79531 17.4522 3.90601 17.3415C4.07207 17.2308 4.29347 17.1201 4.51488 17.0094C5.1791 16.788 5.89865 16.5666 6.56287 16.3451C9.27509 15.4595 11.9873 14.5739 14.6995 13.6329C15.9173 13.2455 16.5815 12.4152 16.5815 11.3635C16.6368 8.04244 16.5815 4.666 16.5815 1.34491C16.5815 0.7914 16.3047 0.34859 15.6959 0.127185C14.9763 -0.149572 14.3121 0.0718299 13.7032 0.348587C9.8286 2.17518 6.00936 4.00178 2.13476 5.82838C1.02773 6.38189 0.363525 7.15681 0.363525 8.26384C0.363525 11.4189 0.363525 14.5739 0.363525 17.7289C0.363525 17.895 0.363512 18.061 0.418863 18.1717C0.806323 19.2234 1.80266 19.8876 3.1311 19.8876C5.84331 19.8876 8.55552 19.8876 11.2677 19.8876C13.98 19.8876 16.6368 19.8876 19.349 19.8876C19.9579 19.8876 20.4561 19.7769 20.8989 19.3895C21.4524 18.9467 21.4524 18.3378 21.4524 17.7843C21.4524 14.6846 21.4524 11.6403 21.4524 8.5406C21.5631 8.48524 21.5631 8.26384 21.5077 8.09778ZM10.2161 7.10146C10.4928 6.3819 11.1017 5.93908 11.9873 5.82838C12.5962 5.77303 13.0943 6.10514 13.205 6.65865C13.3157 7.48892 12.3194 8.48525 11.2677 8.48525C10.4375 8.48525 9.93931 7.87638 10.2161 7.10146Z" fill="#E47418"/>
</svg>
