<svg width="153" height="57" viewBox="0 0 153 57"  xmlns="http://www.w3.org/2000/svg">
<g clip-path="url(#clip0_20_271)">
<path d="M44.7269 33.2676L41.504 13.5483C41.2309 11.8662 39.7615 10.6277 38.0408 10.6277H37.2433L37.6967 16.2687C37.7513 16.9772 37.5273 17.6641 37.063 18.205C36.5987 18.7458 35.9487 19.0757 35.2385 19.1298C35.1621 19.1352 35.0856 19.1406 35.0091 19.1406C33.6216 19.1406 32.4472 18.0643 32.3379 16.6906L31.8518 10.6277H16.5076L15.9887 16.7068C15.874 18.0752 14.6941 19.1406 13.3121 19.1406C13.2411 19.1406 13.1701 19.1406 13.0827 19.1298C11.6078 19.0054 10.5044 17.7182 10.63 16.2579L11.1107 10.6277H9.48835C7.75128 10.6277 6.2764 11.8878 6.01967 13.5861L0.010925 53.1762C0.010925 53.2087 0.010925 53.2411 0 53.2736C30.7921 59.1472 39.4119 33.9166 39.4119 33.9166C39.1169 44.739 34.4137 52.0621 28.5743 57C39.1715 54.6257 46.5459 44.3982 44.7269 33.2676Z"/>
<path d="M32.2232 33.4515H19.4574C19.9818 35.8745 21.9756 37.3564 24.8379 37.3564C26.1271 37.3564 27.1814 37.1022 28.11 36.5776C29.0495 36.0529 30.2294 36.2368 30.945 37.0373C31.8572 38.0595 31.6715 39.682 30.5025 40.4068C28.9457 41.3749 26.9956 41.8725 24.6959 41.8725C18.1956 41.8725 13.9676 37.643 13.9676 31.856C13.9676 26.0689 18.2666 21.8395 23.9967 21.8395C29.7269 21.8395 33.78 25.6741 33.78 31.9263V31.9371C33.78 32.7754 33.0645 33.4406 32.2178 33.4406L32.2232 33.4515ZM19.3918 30.1631H28.6508C28.2684 27.7022 26.4822 26.1122 24.0404 26.1122C21.5987 26.1122 19.7797 27.6698 19.3918 30.1631V30.1631Z" fill="#fff"/>
<path d="M36.3529 16.3769L35.7083 8.35611C35.3314 3.68858 31.4803 0.118987 26.7498 0.0594933L21.85 0C21.8117 0 21.7735 0 21.7353 0C17.0321 0 13.0608 3.60746 12.6621 8.25334L11.9683 16.3661C11.9082 17.0962 12.4545 17.7398 13.1919 17.8047C13.2302 17.8047 13.2684 17.8047 13.3066 17.8047C13.9949 17.8047 14.5849 17.2801 14.6449 16.5878L15.3387 8.47509C15.6173 5.20296 18.3922 2.65556 21.7189 2.65556C21.7516 2.65556 21.779 2.65556 21.8117 2.65556L26.717 2.71506C30.0492 2.75833 32.764 5.26786 33.0317 8.56163L33.6763 16.5824C33.7309 17.2747 34.3154 17.8101 35.0091 17.8101C35.0473 17.8101 35.0856 17.8101 35.1238 17.8101C35.8613 17.7506 36.413 17.1124 36.3583 16.3769H36.3529Z"/>
</g>
<path d="M69.016 45.216C67.744 45.216 66.556 45.168 65.452 45.072C64.372 45 63.388 44.904 62.5 44.784C61.636 44.64 60.88 44.496 60.232 44.352L60.88 40.14C61.96 40.212 63.22 40.284 64.66 40.356C66.1 40.404 67.516 40.428 68.908 40.428C69.916 40.428 70.756 40.356 71.428 40.212C72.124 40.068 72.652 39.804 73.012 39.42C73.372 39.036 73.612 38.496 73.732 37.8L73.876 36.864C73.9 36.72 73.912 36.6 73.912 36.504C73.936 36.384 73.948 36.264 73.948 36.144C73.948 35.472 73.708 34.992 73.228 34.704C72.748 34.416 71.98 34.272 70.924 34.272H68.8C66.76 34.272 65.188 33.768 64.084 32.76C62.98 31.728 62.428 30.36 62.428 28.656C62.428 28.176 62.464 27.672 62.536 27.144L62.896 24.984C63.16 23.28 63.7 21.924 64.516 20.916C65.356 19.908 66.436 19.2 67.756 18.792C69.1 18.36 70.648 18.144 72.4 18.144C72.976 18.144 73.6 18.168 74.272 18.216C74.944 18.24 75.628 18.288 76.324 18.36C77.044 18.432 77.752 18.528 78.448 18.648C79.168 18.768 79.864 18.9 80.536 19.044L79.852 23.256C79.036 23.184 78.136 23.136 77.152 23.112C76.168 23.064 75.196 23.028 74.236 23.004C73.3 22.98 72.472 22.968 71.752 22.968C71.032 22.968 70.396 23.04 69.844 23.184C69.316 23.328 68.884 23.592 68.548 23.976C68.212 24.36 67.984 24.9 67.864 25.596L67.72 26.532C67.696 26.676 67.672 26.82 67.648 26.964C67.648 27.084 67.648 27.204 67.648 27.324C67.648 27.996 67.84 28.488 68.224 28.8C68.632 29.088 69.244 29.232 70.06 29.232H72.328C74.584 29.232 76.276 29.748 77.404 30.78C78.556 31.812 79.132 33.168 79.132 34.848C79.132 35.28 79.096 35.76 79.024 36.288L78.664 38.772C78.424 40.26 77.944 41.484 77.224 42.444C76.504 43.38 75.472 44.076 74.128 44.532C72.808 44.988 71.104 45.216 69.016 45.216ZM80.8687 45L85.0807 18.36H90.4087L88.6447 29.448H98.6887L100.453 18.36H105.781L101.569 45H96.2407L97.9327 34.236H87.8887L86.1967 45H80.8687ZM115.983 45.216C114.615 45.216 113.367 45.108 112.239 44.892C111.111 44.652 110.139 44.232 109.323 43.632C108.507 43.008 107.883 42.156 107.451 41.076C107.019 39.972 106.803 38.544 106.803 36.792C106.803 35.952 106.851 35.028 106.947 34.02C107.043 33.012 107.175 31.992 107.343 30.96C107.751 28.464 108.291 26.388 108.963 24.732C109.635 23.076 110.487 21.768 111.519 20.808C112.551 19.848 113.787 19.164 115.227 18.756C116.691 18.348 118.395 18.144 120.339 18.144C121.659 18.144 122.871 18.264 123.975 18.504C125.103 18.744 126.075 19.188 126.891 19.836C127.731 20.46 128.379 21.348 128.835 22.5C129.291 23.652 129.519 25.14 129.519 26.964C129.519 27.732 129.471 28.62 129.375 29.628C129.279 30.636 129.135 31.668 128.943 32.724C128.559 35.316 128.019 37.428 127.323 39.06C126.651 40.692 125.799 41.952 124.767 42.84C123.735 43.728 122.499 44.352 121.059 44.712C119.619 45.048 117.927 45.216 115.983 45.216ZM116.847 40.392C117.903 40.392 118.803 40.248 119.547 39.96C120.315 39.672 120.951 39.204 121.455 38.556C121.983 37.884 122.415 37.02 122.751 35.964C123.111 34.884 123.411 33.564 123.651 32.004C123.795 31.02 123.915 30.096 124.011 29.232C124.107 28.344 124.155 27.612 124.155 27.036C124.155 25.884 123.987 25.02 123.651 24.444C123.315 23.868 122.811 23.472 122.139 23.256C121.467 23.04 120.603 22.932 119.547 22.932C118.539 22.932 117.651 23.064 116.883 23.328C116.139 23.592 115.503 24.048 114.975 24.696C114.447 25.32 113.991 26.196 113.607 27.324C113.247 28.452 112.935 29.904 112.671 31.68C112.503 32.64 112.371 33.552 112.275 34.416C112.179 35.256 112.131 35.952 112.131 36.504C112.131 37.536 112.287 38.34 112.599 38.916C112.935 39.468 113.451 39.852 114.147 40.068C114.843 40.284 115.743 40.392 116.847 40.392ZM130.861 45L135.073 18.36H145.693C147.013 18.36 148.189 18.576 149.221 19.008C150.277 19.416 151.117 20.136 151.741 21.168C152.365 22.2 152.677 23.64 152.677 25.488C152.677 25.848 152.641 26.304 152.569 26.856C152.497 27.384 152.425 27.864 152.353 28.296C152.113 29.904 151.705 31.248 151.129 32.328C150.577 33.408 149.905 34.272 149.113 34.92C148.345 35.544 147.505 36 146.593 36.288C145.705 36.552 144.817 36.684 143.929 36.684C142.777 36.684 141.613 36.624 140.437 36.504C139.285 36.36 138.349 36.216 137.629 36.072L136.189 45H130.861ZM138.277 31.896H143.209C143.881 31.896 144.481 31.74 145.009 31.428C145.537 31.116 145.969 30.648 146.305 30.024C146.665 29.4 146.917 28.632 147.061 27.72C147.109 27.384 147.145 27.06 147.169 26.748C147.217 26.412 147.241 26.172 147.241 26.028C147.241 24.972 147.013 24.228 146.557 23.796C146.125 23.364 145.501 23.148 144.685 23.148H139.645L138.277 31.896Z"/>
<defs>
<clipPath id="clip0_20_271">
<rect width="45" height="57" fill="white"/>
</clipPath>
</defs>
</svg>
